<svg width="49" height="49" viewBox="0 0 49 49" fill="none" xmlns="http://www.w3.org/2000/svg">
<path d="M41.8542 22.4584H38.7917V14.2917C38.7917 12.0459 36.9542 10.2084 34.7083 10.2084H26.5417V7.14585C26.5417 4.32835 24.255 2.04169 21.4375 2.04169C18.62 2.04169 16.3333 4.32835 16.3333 7.14585V10.2084H8.16667C5.92083 10.2084 4.10375 12.0459 4.10375 14.2917V22.05H7.14583C10.1879 22.05 12.6583 24.5204 12.6583 27.5625C12.6583 30.6046 10.1879 33.075 7.14583 33.075H4.08333V40.8334C4.08333 43.0792 5.92083 44.9167 8.16667 44.9167H15.925V41.8542C15.925 38.8121 18.3954 36.3417 21.4375 36.3417C24.4796 36.3417 26.95 38.8121 26.95 41.8542V44.9167H34.7083C36.9542 44.9167 38.7917 43.0792 38.7917 40.8334V32.6667H41.8542C44.6717 32.6667 46.9583 30.38 46.9583 27.5625C46.9583 24.745 44.6717 22.4584 41.8542 22.4584Z" fill="white"/>
</svg>
